<svg width="338" height="70" viewBox="0 0 338 70" fill="none" xmlns="http://www.w3.org/2000/svg">
<rect x="268" width="70" height="70" rx="10" fill="#D9D9D9"/>
<g filter="url(#filter0_d_5239_1451)">
<rect width="70" height="70" rx="10" fill="white"/>
</g>
<g clip-path="url(#clip0_5239_1451)">
<path d="M58.9747 35.4491C58.9747 33.4826 58.8114 32.0475 58.458 30.5593H35.4781V39.4353H48.9668C48.6949 41.6411 47.2264 44.963 43.9629 47.1952L43.9172 47.4923L51.183 52.9927L51.6864 53.0418C56.3094 48.8695 58.9747 42.7306 58.9747 35.4491Z" fill="#4285F4"/>
<path d="M35.4781 58.8351C42.0864 58.8351 47.6341 56.709 51.6863 53.0418L43.9629 47.1951C41.8961 48.6036 39.1221 49.5869 35.4781 49.5869C29.0057 49.5869 23.5123 45.4147 21.5541 39.6479L21.267 39.6718L13.7119 45.3854L13.6131 45.6538C17.638 53.4668 25.9053 58.8351 35.4781 58.8351Z" fill="#34A853"/>
<path d="M21.554 39.6478C21.0373 38.1597 20.7383 36.565 20.7383 34.9175C20.7383 33.2697 21.0373 31.6753 21.5268 30.1871L21.5131 29.8701L13.8634 24.0647L13.6131 24.181C11.9543 27.4232 11.0024 31.0641 11.0024 34.9175C11.0024 38.7708 11.9543 42.4115 13.6131 45.6537L21.554 39.6478Z" fill="#FBBC05"/>
<path d="M35.4781 20.2481C40.074 20.2481 43.1741 22.188 44.9419 23.8092L51.8494 17.2186C47.6071 13.3652 42.0864 11 35.4781 11C25.9053 11 17.638 16.3681 13.6131 24.1811L21.5269 30.1872C23.5123 24.4204 29.0057 20.2481 35.4781 20.2481Z" fill="#EB4335"/>
</g>
<g filter="url(#filter1_d_5239_1451)">
<rect x="134" width="70" height="70" rx="10" fill="white"/>
</g>
<path fill-rule="evenodd" clip-rule="evenodd" d="M181 27.5H172V21.5C172 20.7044 172.316 19.9413 172.879 19.3787C173.441 18.8161 174.204 18.5 175 18.5H178V11H172C169.613 11 167.324 11.9482 165.636 13.636C163.948 15.3239 163 17.6131 163 20V27.5H157V35H163V59H172V35H178L181 27.5Z" fill="#1976D2"/>
<defs>
<filter id="filter0_d_5239_1451" x="-4" y="0" width="78" height="78" filterUnits="userSpaceOnUse" color-interpolation-filters="sRGB">
<feFlood flood-opacity="0" result="BackgroundImageFix"/>
<feColorMatrix in="SourceAlpha" type="matrix" values="0 0 0 0 0 0 0 0 0 0 0 0 0 0 0 0 0 0 127 0" result="hardAlpha"/>
<feOffset dy="4"/>
<feGaussianBlur stdDeviation="2"/>
<feComposite in2="hardAlpha" operator="out"/>
<feColorMatrix type="matrix" values="0 0 0 0 0 0 0 0 0 0 0 0 0 0 0 0 0 0 0.25 0"/>
<feBlend mode="normal" in2="BackgroundImageFix" result="effect1_dropShadow_5239_1451"/>
<feBlend mode="normal" in="SourceGraphic" in2="effect1_dropShadow_5239_1451" result="shape"/>
</filter>
<filter id="filter1_d_5239_1451" x="130" y="0" width="78" height="78" filterUnits="userSpaceOnUse" color-interpolation-filters="sRGB">
<feFlood flood-opacity="0" result="BackgroundImageFix"/>
<feColorMatrix in="SourceAlpha" type="matrix" values="0 0 0 0 0 0 0 0 0 0 0 0 0 0 0 0 0 0 127 0" result="hardAlpha"/>
<feOffset dy="4"/>
<feGaussianBlur stdDeviation="2"/>
<feComposite in2="hardAlpha" operator="out"/>
<feColorMatrix type="matrix" values="0 0 0 0 0 0 0 0 0 0 0 0 0 0 0 0 0 0 0.25 0"/>
<feBlend mode="normal" in2="BackgroundImageFix" result="effect1_dropShadow_5239_1451"/>
<feBlend mode="normal" in="SourceGraphic" in2="effect1_dropShadow_5239_1451" result="shape"/>
</filter>
<clipPath id="clip0_5239_1451">
<rect width="48" height="48" fill="white" transform="translate(11 11)"/>
</clipPath>
</defs>
</svg>
