<svg width="29" height="29" viewBox="0 0 29 29" fill="none" xmlns="http://www.w3.org/2000/svg">
<path d="M14.5 27.0651C12.8586 27.0678 11.2328 26.7463 9.71597 26.1191C8.19913 25.4919 6.8211 24.5713 5.66099 23.4101C0.786993 18.5361 0.786993 10.6061 5.66099 5.73207C8.02199 3.37107 11.161 2.07007 14.5 2.07007C17.839 2.07007 20.978 3.37007 23.339 5.73207C28.213 10.6061 28.213 18.5361 23.339 23.4101C22.1789 24.5713 20.8009 25.4919 19.284 26.1191C17.7672 26.7463 16.1414 27.0678 14.5 27.0651ZM7.07499 21.9961C11.169 26.0901 17.831 26.0901 21.925 21.9961C23.908 20.0121 25 17.3751 25 14.5711C25 11.7671 23.908 9.13007 21.925 7.14607C19.942 5.16207 17.305 4.07007 14.5 4.07007C11.695 4.07007 9.05899 5.16307 7.07499 7.14607C5.09099 9.12907 3.99999 11.7661 3.99999 14.5711C3.99999 17.3761 5.09199 20.0121 7.07499 21.9961Z" fill="#4A47C2"/>
<path d="M16.798 20.1669C16.6667 20.1671 16.5366 20.1413 16.4153 20.091C16.294 20.0407 16.1838 19.9669 16.091 19.8739L11.495 15.2779C11.4021 15.1852 11.3283 15.075 11.278 14.9536C11.2277 14.8323 11.2018 14.7023 11.2018 14.5709C11.2018 14.4396 11.2277 14.3096 11.278 14.1883C11.3283 14.0669 11.4021 13.9567 11.495 13.8639L16.091 9.26795C16.1839 9.1751 16.2941 9.10145 16.4154 9.05121C16.5367 9.00096 16.6667 8.9751 16.798 8.9751C16.9293 8.9751 17.0593 9.00096 17.1806 9.05121C17.3019 9.10145 17.4122 9.1751 17.505 9.26795C17.5979 9.36079 17.6715 9.47101 17.7218 9.59232C17.772 9.71363 17.7979 9.84364 17.7979 9.97495C17.7979 10.1062 17.772 10.2363 17.7218 10.3576C17.6715 10.4789 17.5979 10.5891 17.505 10.6819L13.616 14.5709L17.505 18.4599C17.6453 18.5996 17.741 18.7778 17.7798 18.9719C17.8186 19.166 17.7989 19.3673 17.7232 19.5502C17.6474 19.7331 17.5191 19.8894 17.3543 19.9992C17.1896 20.109 16.996 20.1674 16.798 20.1669Z" fill="black"/>
</svg>
