<svg width="20" height="11" viewBox="0 0 20 11" fill="none" xmlns="http://www.w3.org/2000/svg">
<path d="M5.33404 10.7435C5.74466 11.1128 6.37694 11.0794 6.74628 10.6688C7.11563 10.2581 7.08217 9.62587 6.67156 9.25652L5.33404 10.7435ZM1.66877 4.75652C1.25815 4.38718 0.625874 4.42063 0.256529 4.83124C-0.112816 5.24185 -0.0793629 5.87414 0.331249 6.24348L1.66877 4.75652ZM0.331249 4.75652C-0.0793629 5.12586 -0.112816 5.75815 0.256529 6.16876C0.625874 6.57937 1.25815 6.61282 1.66877 6.24348L0.331249 4.75652ZM6.67156 1.74348C7.08217 1.37414 7.11563 0.741855 6.74628 0.331242C6.37694 -0.0793705 5.74466 -0.112824 5.33404 0.25652L6.67156 1.74348ZM1.00001 4.5C0.447727 4.5 1.14441e-05 4.94772 1.14441e-05 5.5C1.14441e-05 6.05228 0.447727 6.5 1.00001 6.5V4.5ZM18.7877 6.5C19.34 6.5 19.7877 6.05228 19.7877 5.5C19.7877 4.94772 19.34 4.5 18.7877 4.5V6.5ZM6.67156 9.25652L1.66877 4.75652L0.331249 6.24348L5.33404 10.7435L6.67156 9.25652ZM1.66877 6.24348L6.67156 1.74348L5.33404 0.25652L0.331249 4.75652L1.66877 6.24348ZM1.00001 6.5L18.7877 6.5V4.5L1.00001 4.5V6.5Z" fill="black"/>
</svg>
