<svg width="408" height="344" viewBox="0 0 408 344" fill="none" xmlns="http://www.w3.org/2000/svg">
<rect width="408" height="344" fill="white"/>
<path fill-rule="evenodd" clip-rule="evenodd" d="M90.6628 241.115C115.148 263.565 226.858 232.903 264.468 241.115C290.09 246.71 379.892 252.35 344.352 174.492C231.615 -72.4848 13.0815 169.984 90.6628 241.115Z" fill="#4F378B"/>
<ellipse cx="191.781" cy="69.4343" rx="18.4666" ry="18.5209" fill="white"/>
<path fill-rule="evenodd" clip-rule="evenodd" d="M40.53 301.316C34.8468 303.719 30.1803 306.606 31.9191 310.195C34.9491 316.448 44.4689 318.755 55.2943 320.598C70.439 323.178 91.4618 323.502 118.662 322.504C164.132 320.837 158.974 317.168 202.124 315.443C231.491 314.269 282.432 320.788 323.296 320.671C348.297 320.598 457.34 295.186 302.545 289.544C147.749 283.902 62.6104 291.981 40.53 301.316Z" fill="white"/>
<path fill-rule="evenodd" clip-rule="evenodd" d="M40.53 301.316C34.8468 303.719 30.1803 306.606 31.9191 310.195C34.9491 316.448 160.85 296.3 204 294.575C233.367 293.401 278.133 301.434 318.997 301.316C343.998 301.244 401.089 296.961 302.545 289.544C204 282.126 62.6104 291.981 40.53 301.316Z" fill="#E7EAEE"/>
<path fill-rule="evenodd" clip-rule="evenodd" d="M121.677 288.669C80.4516 291.027 51.9338 295.212 39.9204 300.291C36.5585 301.712 34.1003 303.063 32.456 304.52C30.3335 306.401 29.6155 308.473 30.6601 310.628C32.2335 313.876 35.4032 316.271 40.1168 318.093C43.7906 319.512 48.1541 320.54 54.6016 321.65L55.025 321.722C69.4999 324.187 89.5843 324.718 118.721 323.65L121.132 323.558C138.029 322.898 146.913 322.089 160.052 320.321L163.638 319.833C176.828 318.048 185.085 317.282 201.581 316.613L202.963 316.558C214.551 316.132 225.239 316.593 254.741 318.567L271.477 319.695C275.29 319.947 278.525 320.153 281.788 320.35L285.261 320.556C299.956 321.406 311.895 321.834 322.731 321.818L323.3 321.817C329.739 321.798 341.384 320.162 352.711 317.68L353.596 317.484C365.928 314.731 376.011 311.41 381.166 308.109C388.242 303.578 386.309 298.9 375.042 295.691C362.847 292.218 339.093 289.728 302.603 288.398C230.025 285.753 168.771 285.976 121.677 288.669ZM302.486 290.689L304.645 290.77C339.67 292.11 362.526 294.547 374.172 297.864L374.699 298.017C379.366 299.398 381.88 300.868 382.443 302.23C382.9 303.336 382 304.696 379.521 306.283C374.723 309.355 364.904 312.587 352.889 315.269L352.027 315.46C341.046 317.866 329.758 319.464 323.534 319.522L323.291 319.524C311.814 319.557 299.089 319.084 283.108 318.131L277.91 317.811C274.572 317.601 271.009 317.366 266.619 317.07L255.92 316.345C224.874 314.262 214.243 314.727 202.06 315.215L199.659 315.314C184.228 315.972 176.007 316.754 163.211 318.485L159.175 319.034C145.923 320.808 136.983 321.592 119.213 322.253L118.603 322.276C89.9594 323.326 70.1681 321.904 55.9914 319.546L55.5635 319.474C42.0067 317.165 34.073 315.46 31.7658 309.807C30.8107 307.466 34.7105 305.059 41.1396 302.341C52.7275 297.442 80.9853 293.295 121.861 290.957C168.847 288.271 230.002 288.047 302.486 290.689Z" fill="#00160A"/>
<path fill-rule="evenodd" clip-rule="evenodd" d="M176.151 60.4892C179.397 53.9411 188.139 49.6621 196.499 50.5297C191.121 48.1323 184.886 44.3851 185.869 39.3262C186.624 35.4362 191.57 33.0785 196.211 32.5768C203.031 31.8396 210.732 34.4489 213.393 39.7902C216.054 45.1315 211.308 52.5157 204.437 52.2886C210.217 57.1062 212.314 64.8098 209.605 71.2679C208.244 74.5106 202.355 74.6997 199.342 72.3789C196.328 70.0582 195.463 66.4103 194.761 63.0222C191.371 64.8744 187.439 66.0162 183.415 66.3171C185.314 66.8556 186.908 68.1094 187.677 69.6679C184.326 67.4636 180.414 65.8678 176.283 65.0202C174.781 69.2729 173.263 73.6816 173.955 78.0801C174.646 82.4786 178.179 86.8867 183.364 87.665C195.117 89.429 203.166 72.3008 215.053 73.2208C219.95 73.5998 223.65 71.7664 225.427 67.9043C227.204 64.0422 225.595 59.2653 221.674 56.7655C219.344 56.8573 217.104 55.2247 216.876 53.2688C216.649 51.3129 218.471 49.3452 220.778 49.0544C215.879 43.1713 217.112 34.2582 223.486 29.4817C229.859 24.7053 240.511 24.7111 246.876 29.4944C243.391 24.7538 246.695 17.5917 253.022 15.9528C259.349 14.3139 266.775 18.5226 267.516 24.064C268.256 29.6053 262.31 35.0518 255.691 35.0295C256.792 39.3177 261.453 42.7762 266.642 43.156C264.424 45.3166 260.175 43.2804 258.337 40.8803C256.499 38.4802 254.753 35.3601 251.377 35.0943C255.525 39.2127 258.261 44.3281 259.176 49.6736C256.318 45.9354 254.27 41.7591 253.163 37.4115C253.568 40.889 252.797 44.4581 250.964 47.5923C253.123 46.7171 255.509 49.037 255.161 51.0346C254.814 53.0322 252.908 54.5346 251.209 55.9579C246.371 60.0092 242.169 66.1622 245.361 71.2411C247.512 74.6637 252.211 76.2056 256.087 78.2881C264.44 82.7766 269.687 90.5562 272.224 98.6244C274.762 106.693 274.886 115.14 274.995 123.486C275.228 141.349 275.46 159.213 275.693 177.076C275.77 182.966 275.399 189.707 269.978 193.427C273.293 189.552 274.726 184.569 273.883 179.845C268.318 195.71 263.945 211.571 262.423 229.958C260.9 248.345 263.912 256.05 257.508 281.119C256.931 283.376 258.191 286.036 259.785 288.195C262.568 291.966 273.077 294.078 271.07 297.157C268.509 301.085 257.289 300.161 250.213 299.888C247.304 299.776 244.179 299.374 242.096 297.659C239.508 295.528 239.361 292.12 239.37 289.07C239.46 256.7 237.999 224.327 234.992 192.056C234.417 217.053 233.838 242.108 230.088 266.91C229.032 273.897 226.894 281.208 227.228 288.195C227.409 291.998 229.504 296.073 230.232 299.888C230.811 302.917 228.201 303.958 225.427 303.788C224.692 303.742 224.109 304.261 223.354 304.221C222.728 304.188 222.094 303.83 221.385 303.788C220.626 303.743 219.788 304.012 218.974 303.958C218.366 303.918 218.227 303.492 217.134 303.492C216.042 303.492 215.716 303.778 214.624 303.633C213.532 303.488 211.549 304.628 210.555 303.368C208.758 301.089 213.393 294.981 213.119 291.801C212.845 288.62 211.408 278.482 211.294 275.79C210.316 252.525 204.272 208.139 204.272 208.139C204.272 208.139 200.744 243.414 188.83 264.626C185.874 269.888 181.848 278.547 185.869 283.008C189.889 287.468 187.581 291.425 189.02 295.968C190.169 299.597 193.037 302.702 193.301 307.02C193.432 309.152 189.701 308.697 189.335 308.478C188.969 308.26 188.348 307.012 188.038 307.119C187.572 307.279 188.802 308.393 187.335 309.163C185.869 309.932 185.284 309.086 184.587 309.339C183.908 309.586 183.548 310.354 182.776 310.243C181.212 310.02 181.125 309.497 180.961 309.543C180.79 309.591 181.042 310.407 180.402 310.563C179.761 310.718 177.905 310.039 177.528 309.73C176.976 309.277 177.176 310.923 176.436 310.844C173.422 310.52 172.39 308.186 172.668 306.8C171.085 310.001 168.894 312.1 165.042 313.261C164.17 313.524 163.704 312.698 163.261 312.74C163.018 312.763 163.464 313.414 162.736 313.613C162.009 313.812 161.658 313.737 160.737 313.507C159.816 313.277 160.053 311.322 159.828 311.322C159.603 311.322 159.614 312.33 159.211 312.615C158.439 313.161 157.995 313.209 157.325 312.469C156.95 312.055 157.389 311.369 157.123 311.322C156.941 311.29 156.6 312.118 155.981 312.242C154.895 312.459 154.541 312.542 153.713 311.597C153.351 311.185 154.036 310.036 153.6 309.932C153.163 309.829 152.622 311.744 152.058 312.1C151.493 312.456 151.117 312.149 150.607 311.824C147.785 307.294 151.87 302.085 154.688 297.553C162.654 284.743 160.653 269.191 156.349 255.191C152.046 241.191 145.61 227.41 145.273 212.951C145.142 207.319 145.944 201.65 145.025 196.07C144.024 189.993 141.03 184.299 138.848 178.446C134.702 167.326 133.483 155.589 132.941 143.943C132.515 134.772 132.512 125.453 135.366 116.596C138.221 107.739 144.262 99.2841 153.6 94.5571C159.424 91.609 166.644 89.9524 170.405 85.1855C173.924 80.7262 173.31 74.8962 172.561 69.5789C170.071 69.1978 168.224 66.9324 168.694 64.8377C169.165 62.743 171.868 61.2033 174.351 61.6153C173.274 59.8427 172.198 58.0701 171.122 56.2976C171.811 57.1413 175.135 62.1959 174.926 55.7347C175.189 57.3397 175.656 57.8264 176.151 60.4892Z" fill="white"/>
<path fill-rule="evenodd" clip-rule="evenodd" d="M161.803 174.582C160.725 175.108 159.329 175.789 158.433 175.076C155.984 173.13 151.902 172.874 149.114 174.446L148.947 174.543L148.815 175.862C151.603 174.095 155.895 174.296 158.433 176.314C159.237 176.953 160.445 176.47 161.463 175.983L162.033 175.709C164.903 174.39 168.678 174.604 171.303 176.25C172.772 177.171 174.539 176.59 176.367 175.988C177.895 175.486 179.467 174.969 180.945 175.301C181.635 175.457 182.317 175.792 182.984 176.121C184.207 176.724 185.385 177.303 186.491 176.712C188.682 175.539 191.709 175.599 193.833 176.855L193.641 175.898L193.557 175.464C191.452 174.359 188.589 174.352 186.491 175.474C185.385 176.066 184.207 175.486 182.984 174.884C182.317 174.555 181.635 174.22 180.945 174.064C179.467 173.731 177.895 174.248 176.367 174.751C174.539 175.352 172.772 175.933 171.303 175.013C168.625 173.333 164.748 173.145 161.859 174.554L161.803 174.582ZM161.782 188.65C160.729 189.211 159.365 189.937 158.437 189.254C155.901 187.388 148.862 190.35 148.862 190.35C149.286 190.51 150.258 190.344 151.457 190.138C153.715 189.752 156.777 189.227 158.493 190.49C159.326 191.103 160.511 190.581 161.506 190.062L162.064 189.769C164.871 188.359 168.654 188.45 171.352 190.01C172.861 190.882 174.6 190.245 176.4 189.584C177.904 189.033 179.451 188.465 180.943 188.75C181.64 188.883 182.336 189.196 183.018 189.503C184.268 190.065 185.471 190.607 186.549 189.98L186.699 189.895C187.93 189.224 190.65 189.642 193.116 190.02C194.91 190.296 196.569 190.55 197.422 190.35C197.422 190.35 188.538 187.554 186.493 188.743C185.414 189.37 184.211 188.829 182.962 188.267C182.28 187.96 181.584 187.647 180.886 187.514C179.395 187.229 177.848 187.796 176.344 188.348C174.544 189.008 172.805 189.646 171.295 188.773C168.542 187.182 164.66 187.119 161.837 188.621L161.782 188.65ZM162.661 137.802C161.697 138.387 160.185 138.749 159.454 137.961C157.159 135.486 151.805 135.895 150.075 138.677C152.096 137.733 154.479 136.765 156.617 137.504C157.213 137.709 157.759 138.04 158.299 138.367C159.199 138.913 160.084 139.448 161.152 139.379C161.946 139.328 162.631 138.94 163.313 138.554C164.045 138.14 164.773 137.728 165.628 137.737C166.577 137.746 167.35 138.266 168.124 138.787C168.894 139.306 169.665 139.825 170.612 139.838C171.386 139.848 172.091 139.51 172.79 139.175C173.571 138.8 174.344 138.429 175.197 138.553C176.215 138.702 176.826 139.469 177.439 140.236C178.047 141 178.657 141.764 179.668 141.921C180.266 142.014 180.86 141.86 181.438 141.672L182.011 141.482C183.363 141.039 184.871 140.793 186.263 141.134C187.46 141.427 188.525 142.243 188.807 143.242C188.79 143.02 188.77 142.799 188.747 142.579L188.712 141.317C187.178 140.249 185.033 139.834 183.101 140.234C182.77 140.303 182.443 140.394 182.117 140.485C181.49 140.66 180.864 140.835 180.207 140.848C179.21 140.868 178.077 140.318 178.071 139.477L178.067 139.387C177.959 137.993 175.622 137.532 173.976 137.895C173.626 137.973 173.271 138.066 172.914 138.161C171.554 138.52 170.162 138.888 168.928 138.376C168.451 138.178 168.048 137.861 167.649 137.548C167.091 137.109 166.54 136.676 165.805 136.583C164.902 136.468 164.098 136.906 163.336 137.38L162.661 137.802ZM150.155 127.785C150.812 126.462 150.794 125 150.715 123.83C150.715 123.83 149.577 125.52 148.062 125.338L147.956 125.328C147.274 125.286 146.56 125.615 145.887 125.924C144.979 126.342 144.147 126.725 143.572 126.115C142.161 124.618 139.854 123.755 137.591 123.875C136.948 123.91 136.267 124.037 135.821 124.429C135.375 124.821 135.299 125.541 135.811 125.871C136.335 124.767 138.165 124.555 139.473 125.002C140.219 125.256 140.874 125.653 141.529 126.051C142.024 126.351 142.519 126.652 143.055 126.892C144.301 127.451 146.052 127.584 146.953 126.668L147.023 126.602C147.727 125.978 149.088 125.99 149.758 126.647C150.076 126.959 150.201 127.378 150.155 127.785ZM156.486 110.936C154.948 111.519 153.251 110.493 152.106 109.451L151.558 108.954C150.547 108.055 149.403 107.186 147.983 107.25C147.216 107.285 146.51 107.601 145.853 107.936C143.891 108.934 142.099 110.168 140.547 111.588C142.053 111.696 143.307 110.823 144.549 109.957C145.854 109.048 147.146 108.148 148.704 108.402C149.893 108.596 150.72 109.41 151.545 110.221C152.392 111.055 153.237 111.886 154.468 112.038C155.285 112.139 156.085 111.905 156.876 111.674C157.068 111.618 157.26 111.561 157.452 111.51C161.254 110.496 165.721 111.585 168.293 114.153C169.467 115.325 171.66 114.769 173.322 114.061L173.778 113.862C175.441 113.154 177.64 112.607 178.803 113.787L178.914 113.896C180.784 115.658 184.067 115.504 186.917 115.098L187.425 115.022C187.454 115.166 187.483 115.323 187.512 115.492L187.568 115.845C188.181 114.031 187.939 113.617 187.425 114.578C186.502 113.881 184.702 114.093 183.493 114.321L183.382 114.341C182.188 114.545 180.669 114.465 180.223 113.525C179.407 111.806 176.427 112.046 174.396 112.755L174.134 112.846C172.144 113.527 169.673 114.19 168.229 112.9C165.308 110.291 160.368 109.465 156.486 110.936ZM188.257 109.064C188.28 108.487 188.352 107.8 188.482 107.019L188.515 106.829C187.115 106.093 185.339 105.885 183.754 106.273C182.449 106.592 181.35 105.834 180.224 105.058C179.222 104.366 178.198 103.66 176.989 103.686C176.015 103.707 175.216 104.199 174.407 104.697C173.754 105.099 173.095 105.506 172.332 105.67C170.474 106.071 168.763 104.974 167.243 103.9L166.637 103.469C164.971 102.288 162.339 101.334 160.792 102.625L160.693 102.703C159.388 103.687 157.255 103.337 155.713 102.596C155.224 102.361 154.752 102.094 154.28 101.826C153.225 101.227 152.172 100.63 150.942 100.408C149.161 100.087 146.864 101.115 147.104 102.635C148.41 101.47 150.606 101.089 152.352 101.726C153.174 102.025 153.941 102.526 154.695 103.019C156.068 103.917 157.4 104.788 158.953 104.368C159.426 104.24 159.834 103.999 160.243 103.758C160.59 103.554 160.937 103.349 161.324 103.212C163.288 102.518 165.117 103.698 166.968 104.891C168.756 106.045 170.566 107.211 172.537 106.715C173.268 106.531 173.909 106.125 174.541 105.725C175.407 105.177 176.256 104.639 177.3 104.695C178.366 104.752 179.187 105.421 179.973 106.061C180.025 106.102 180.075 106.144 180.126 106.185L180.343 106.359C181.246 107.07 182.61 107.681 183.661 107.133C185.346 106.255 187.62 107.473 188.257 109.064ZM189.746 102.083C190.091 101.734 190.416 101.29 190.72 100.754C191.131 100.028 191.137 98.7797 190.72 99.5164C190.213 100.411 189.042 101.122 187.896 100.895C187.392 100.795 186.962 100.534 186.533 100.274C186.056 99.9854 185.581 99.6979 185.011 99.6347C184.365 99.5632 183.755 99.7937 183.149 100.023C182.955 100.097 182.76 100.17 182.565 100.233C181.763 100.494 180.653 100.495 180.26 99.8508C178.905 97.6293 174.691 97.226 172.779 99.1348C171.991 99.9213 170.426 99.4171 169.598 98.6611C169.391 98.4724 169.194 98.2679 168.997 98.0631C168.404 97.4474 167.809 96.8284 166.925 96.6233C165.929 96.3922 164.965 96.769 163.99 97.1496C163.111 97.4929 162.225 97.8393 161.3 97.7457C160.348 97.6494 159.594 97.1155 158.842 96.584C158.589 96.4049 158.336 96.226 158.076 96.0642C157.045 95.4225 155.376 95.1115 154.634 95.9923C155.908 96.1499 157.013 96.7278 158.119 97.3067C158.587 97.551 159.054 97.7955 159.535 98.0087C161.154 98.7269 163.4 99.0055 164.618 97.8547L164.691 97.7904C165.589 97.0553 167.188 97.659 168.055 98.4622C168.213 98.6088 168.37 98.7636 168.527 98.9195C169.257 99.6418 170.013 100.39 171.098 100.473C172.071 100.547 172.907 100.051 173.743 99.5545C174.575 99.0612 175.407 98.5676 176.374 98.6326C177.365 98.6992 178.094 99.3213 178.826 99.9449C179.544 100.557 180.263 101.17 181.232 101.261C181.752 101.31 182.262 101.195 182.773 101.08C182.986 101.032 183.199 100.984 183.413 100.948C185.404 100.611 187.4 101.302 189.25 102.042L189.63 102.196L189.746 102.083ZM153.112 116.594C153.398 116.726 153.671 116.947 153.702 117.238C153.734 117.528 153.387 117.834 153.101 117.702C151.986 117.189 150.637 117.587 149.515 118.087C149.383 118.146 149.251 118.206 149.118 118.267L149.118 118.267C148.12 118.722 147.09 119.193 145.991 119.107C145.039 119.033 144.155 118.552 143.291 118.082C142.142 117.457 141.028 116.85 139.834 117.241C139.229 117.44 138.775 117.862 138.318 118.287C137.98 118.602 137.639 118.919 137.233 119.148C137.117 119.214 136.985 119.273 136.85 119.255C136.479 119.204 136.496 118.704 136.657 118.395C137.702 116.389 140.68 115.451 142.862 116.441C143.242 116.613 143.598 116.834 143.953 117.054C144.566 117.434 145.175 117.812 145.895 117.934C147.06 118.132 148.196 117.613 149.266 117.124L149.267 117.123C149.34 117.09 149.413 117.057 149.485 117.024C150.619 116.51 151.983 116.071 153.112 116.594ZM162.148 119.19C163.774 119.937 165.91 119.847 167.435 118.967C168.521 118.341 170.03 118.869 171.053 119.564C171.255 119.701 171.455 119.846 171.656 119.992C172.47 120.582 173.297 121.183 174.348 121.308C175.204 121.411 176.03 121.174 176.861 120.936C177.549 120.74 178.24 120.542 178.954 120.534C180.148 120.52 181.22 121.025 182.274 121.521C182.5 121.628 182.725 121.734 182.951 121.834C184.227 122.403 185.872 122.793 187.063 122.109L181.625 120.179C180.875 119.913 180.104 119.643 179.289 119.615C178.547 119.59 177.821 119.767 177.098 119.942C176.262 120.145 175.43 120.348 174.583 120.236C173.519 120.097 172.679 119.501 171.843 118.908C171.568 118.712 171.293 118.517 171.011 118.339C169.871 117.619 168.081 117.202 167.119 118.082C166.26 118.869 164.73 118.843 163.536 118.457C162.971 118.274 162.44 118.028 161.91 117.782L161.909 117.782C161.319 117.508 160.729 117.234 160.093 117.049C158.884 116.696 157.334 116.761 156.572 117.615C156.499 117.893 156.897 118.118 157.241 118.102C157.461 118.092 157.666 118.022 157.871 117.952L157.871 117.952L157.871 117.952L157.871 117.952L157.871 117.952C157.987 117.913 158.102 117.874 158.221 117.845C159.264 117.59 160.217 118.13 161.162 118.666C161.491 118.852 161.818 119.038 162.148 119.19ZM189.922 163.369C189.485 164.32 187.936 164.462 186.878 164.02C186.259 163.761 185.735 163.371 185.209 162.981C184.837 162.705 184.464 162.428 184.056 162.197C183.073 161.639 181.633 161.412 180.816 162.146C178.786 163.971 175.566 164.705 172.775 163.979C171.707 163.701 170.726 163.235 169.743 162.768L169.743 162.768C169.193 162.507 168.642 162.245 168.075 162.017C166.496 161.379 164.617 161.006 163.043 161.65C162.441 161.897 161.932 162.272 161.421 162.648C160.984 162.971 160.546 163.293 160.049 163.536C158.365 164.356 156.194 164.117 154.533 163.262C154.249 163.115 153.973 162.951 153.697 162.787L153.697 162.787C153.067 162.412 152.439 162.038 151.708 161.874C150.656 161.638 149.28 162.09 149.166 163.034C148.427 162.095 149.616 160.749 150.915 160.66C152.215 160.572 153.396 161.264 154.464 161.917C155.532 162.57 156.734 163.246 158.029 163.12C159.114 163.015 159.955 162.39 160.808 161.757C161.386 161.328 161.97 160.894 162.638 160.617C164.853 159.695 167.456 160.639 169.619 161.651C171.782 162.664 174.202 163.792 176.562 163.204C177.491 162.973 178.297 162.496 179.102 162.018C179.414 161.833 179.726 161.649 180.045 161.478C181.189 160.867 182.622 160.428 183.851 160.893C184.391 161.098 184.824 161.452 185.257 161.806C185.453 161.967 185.649 162.128 185.856 162.274C186.983 163.077 188.474 163.478 189.922 163.369ZM201.389 201.261C200.127 202.636 197.575 202.166 195.644 201.554C193.713 200.942 191.181 200.44 189.879 201.788C189.139 202.554 187.675 202.433 186.65 201.952C186.211 201.746 185.807 201.49 185.403 201.234L185.403 201.234C184.866 200.893 184.33 200.553 183.713 200.333C181.312 199.478 178.698 200.667 176.366 201.727L176.158 201.821L175.952 201.915C173.518 203.014 170.087 203.714 168.328 201.921C167.125 200.695 164.79 201.005 163.099 201.712C162.756 201.855 162.413 202.011 162.069 202.168C160.719 202.784 159.348 203.409 157.85 203.298C156.521 203.199 155.322 202.532 154.149 201.878C152.661 201.049 151.213 200.243 149.59 200.649C149.08 200.777 148.62 201.021 148.163 201.263L148.163 201.263C147.583 201.57 147.007 201.876 146.336 201.94C146.338 200.538 148.156 199.542 149.82 199.566C151.413 199.59 152.868 200.265 154.269 200.915L154.456 201.002C155.914 201.677 157.512 202.33 159.165 202.17C160.306 202.06 161.315 201.578 162.326 201.095C162.762 200.887 163.198 200.679 163.644 200.5C165.129 199.907 167.153 199.726 168.202 200.792C169.569 202.178 172.131 202.205 174.145 201.598C175.096 201.311 175.993 200.914 176.89 200.517C177.892 200.074 178.893 199.631 179.968 199.342C182.006 198.794 184.599 198.986 185.785 200.485C186.513 201.403 188.162 201.337 189.37 200.909C189.707 200.79 190.038 200.65 190.369 200.511C191.228 200.149 192.086 199.787 193.032 199.782C194.038 199.777 195.016 200.175 195.971 200.564C197.24 201.082 198.471 201.583 199.679 201.103L201.389 201.261ZM174.386 151.284C173.017 151.487 171.791 150.868 170.549 150.242C169.482 149.704 168.403 149.16 167.212 149.124C165.795 149.081 164.523 149.758 163.263 150.428C161.877 151.165 160.505 151.895 158.97 151.648C158.36 151.549 157.807 151.3 157.254 151.051C156.979 150.927 156.703 150.803 156.42 150.697C154.3 149.905 151.674 150.223 149.892 151.488C150.233 150.157 151.814 149.247 153.397 149.138C154.98 149.029 156.535 149.577 157.876 150.307C159.019 150.929 160.541 150.672 161.751 150.152C162.235 149.944 162.697 149.698 163.158 149.453L163.158 149.453C163.85 149.084 164.541 148.717 165.304 148.478C167.427 147.815 169.98 148.314 171.558 149.703C172.518 150.548 174.158 150.322 175.432 149.878C175.615 149.814 175.799 149.746 175.984 149.679C177.089 149.275 178.23 148.858 179.377 149.088C180.394 149.291 181.199 149.965 181.988 150.625C182.949 151.429 183.885 152.213 185.151 152.103C185.563 152.067 185.948 151.932 186.334 151.797L186.334 151.797L186.334 151.797L186.334 151.797C186.618 151.697 186.902 151.597 187.198 151.537C187.898 151.393 188.818 151.597 188.969 152.201C186.966 152.844 184.629 153.469 182.788 152.534C182.211 152.241 181.72 151.808 181.235 151.381C180.466 150.705 179.712 150.041 178.654 149.964C177.79 149.901 177.019 150.262 176.239 150.627C175.642 150.906 175.039 151.188 174.386 151.284ZM165.287 128.909C166.018 128.52 166.749 128.131 167.603 128.072C168.902 127.984 169.994 128.669 171.053 129.333L171.053 129.333L171.053 129.333C171.289 129.481 171.523 129.628 171.757 129.765C173.044 130.517 175.157 130.902 176.006 129.824C176.504 129.192 177.693 129.155 178.522 129.498C179.125 129.748 179.603 130.14 180.081 130.531L180.081 130.531C180.26 130.678 180.439 130.825 180.625 130.964C181.402 131.547 182.361 132.023 183.423 132.105C184.484 132.187 185.646 131.797 186.11 131.03C183.595 131.463 180.801 130.515 179.444 128.77C178.759 127.89 177.065 128.313 175.956 128.852C174.847 129.39 173.216 129.885 172.435 129.057C170.615 127.128 166.681 126.786 164.384 128.358C163.263 129.125 161.499 128.614 160.372 127.852C160.077 127.653 159.792 127.435 159.508 127.218L159.508 127.218L159.508 127.218C158.707 126.607 157.904 125.994 156.853 125.766C155.008 125.364 152.893 126.558 152.751 128.081C153.27 128.133 153.814 127.905 154.056 127.535C154.593 126.71 156.063 126.556 157.135 126.917C157.988 127.205 158.668 127.721 159.344 128.234L159.344 128.234L159.344 128.234C159.518 128.367 159.692 128.499 159.869 128.627C160.731 129.251 161.799 129.82 162.959 129.747C163.818 129.692 164.552 129.301 165.287 128.909Z" fill="#FFB61D"/>
<path fill-rule="evenodd" clip-rule="evenodd" d="M176.151 60.4892C179.397 53.9411 188.139 49.6621 196.499 50.5297C191.121 48.1323 184.886 44.3851 185.869 39.3262C186.624 35.4362 191.57 33.0785 196.211 32.5768C203.031 31.8396 210.732 34.4489 213.393 39.7902C216.054 45.1315 211.308 52.5157 204.437 52.2886C210.217 57.1062 212.314 64.8098 209.605 71.2679C208.244 74.5106 202.355 74.6997 199.342 72.3789C196.328 70.0582 195.463 66.4103 194.761 63.0222C191.371 64.8744 187.439 66.0162 183.415 66.3171C185.314 66.8556 186.908 68.1094 187.677 69.6679C184.326 67.4636 180.414 65.8678 176.283 65.0202C174.781 69.2729 173.263 73.6816 173.955 78.0801C174.646 82.4786 178.179 86.8867 183.364 87.665C189.341 88.5621 194.361 84.5728 199.414 80.5562C204.297 76.6752 209.212 72.7687 215.053 73.2208C219.95 73.5998 223.65 71.7664 225.427 67.9043C227.204 64.0422 225.595 59.2653 221.674 56.7655C219.344 56.8573 217.104 55.2247 216.876 53.2688C216.649 51.3129 218.471 49.3452 220.778 49.0544C215.879 43.1713 217.112 34.2582 223.486 29.4817C229.859 24.7053 240.511 24.7111 246.876 29.4944C243.391 24.7538 246.695 17.5917 253.022 15.9528C259.349 14.3139 266.775 18.5226 267.516 24.064C268.256 29.6053 262.31 35.0518 255.691 35.0295C256.792 39.3177 261.453 42.7762 266.642 43.156C264.424 45.3166 260.175 43.2804 258.337 40.8803C258.075 40.5377 257.814 40.1804 257.55 39.8189L257.55 39.8186L257.55 39.8186C255.967 37.6474 254.271 35.3221 251.377 35.0943C255.525 39.2127 258.261 44.3281 259.176 49.6736C256.318 45.9354 254.27 41.7591 253.163 37.4115C253.568 40.889 252.797 44.4581 250.964 47.5923C253.123 46.7171 255.509 49.037 255.161 51.0346C254.831 52.9342 253.092 54.3861 251.46 55.7479C251.376 55.8181 251.292 55.8881 251.209 55.9579C246.371 60.0092 242.169 66.1622 245.361 71.2411C247.013 73.8706 250.17 75.39 253.302 76.8973C254.246 77.3519 255.189 77.8055 256.087 78.2881C264.44 82.7766 269.687 90.5562 272.224 98.6244C274.762 106.693 274.886 115.14 274.995 123.486L275.693 177.076C275.77 182.966 275.399 189.707 269.978 193.427C273.293 189.552 274.726 184.569 273.883 179.845C268.318 195.71 263.945 211.571 262.423 229.958C261.929 235.927 261.912 240.771 261.896 245.448V245.448C261.863 255.178 261.833 264.188 257.508 281.119C256.931 283.376 258.191 286.036 259.785 288.195C260.991 289.829 263.648 291.152 266.109 292.377C269.326 293.978 272.207 295.413 271.07 297.157C268.751 300.714 259.329 300.292 252.316 299.978C251.585 299.945 250.881 299.914 250.213 299.888C247.304 299.776 244.179 299.374 242.096 297.659C239.508 295.528 239.361 292.12 239.37 289.07C239.46 256.7 237.999 224.327 234.992 192.056C234.417 217.053 233.838 242.108 230.088 266.91C229.774 268.987 229.365 271.092 228.953 273.209C227.98 278.214 226.993 283.285 227.228 288.195C227.334 290.429 228.101 292.757 228.863 295.071C229.399 296.696 229.932 298.314 230.232 299.888C230.811 302.917 228.201 303.958 225.427 303.788C225.06 303.765 224.731 303.883 224.4 304.002C224.067 304.121 223.732 304.241 223.354 304.221C223.049 304.205 222.741 304.111 222.425 304.015C222.092 303.914 221.748 303.809 221.385 303.788C221.015 303.766 220.627 303.818 220.233 303.872C219.816 303.928 219.392 303.986 218.974 303.958C218.725 303.942 218.555 303.861 218.366 303.771C218.093 303.641 217.78 303.492 217.134 303.492C216.671 303.492 216.345 303.544 216.04 303.592C215.627 303.657 215.252 303.717 214.624 303.633C214.259 303.585 213.795 303.68 213.301 303.781C212.317 303.982 211.217 304.207 210.555 303.368C209.536 302.075 210.586 299.55 211.636 297.026C212.437 295.101 213.238 293.177 213.119 291.801C213.002 290.442 212.673 287.813 212.325 285.037L212.325 285.036C211.858 281.316 211.359 277.332 211.294 275.79C210.316 252.525 208.182 229.08 203.866 206.086C196.773 210.145 189.024 213.39 180.902 215.705C178.046 216.518 177.374 219.604 177.176 222.137C175.725 240.686 174.374 259.868 181.934 277.333C191.744 255.751 199.125 233.387 203.946 210.637C201.584 229.111 196.303 247.317 188.286 264.626C185.586 270.455 181.848 278.547 185.869 283.008C188.395 285.81 188.422 288.414 188.451 291.089C188.468 292.672 188.485 294.279 189.02 295.968C189.458 297.35 190.145 298.656 190.842 299.983C191.976 302.138 193.138 304.347 193.301 307.02C193.432 309.152 189.701 308.697 189.335 308.478C189.18 308.386 188.98 308.11 188.777 307.83C188.5 307.447 188.217 307.057 188.038 307.119C187.872 307.175 187.921 307.353 187.987 307.592C188.106 308.027 188.281 308.666 187.335 309.163C186.426 309.64 185.856 309.496 185.388 309.378C185.101 309.306 184.852 309.243 184.587 309.339C184.321 309.436 184.104 309.612 183.892 309.785C183.563 310.052 183.246 310.31 182.776 310.243C181.667 310.085 181.3 309.776 181.123 309.626C181.05 309.565 181.009 309.53 180.961 309.543C180.903 309.56 180.894 309.665 180.882 309.803C180.858 310.07 180.824 310.46 180.402 310.563C179.761 310.718 178.009 310.093 177.631 309.783C177.358 309.56 177.244 309.836 177.109 310.163C176.97 310.497 176.81 310.884 176.436 310.844C173.422 310.52 172.39 308.186 172.668 306.8C171.085 310.001 168.894 312.1 165.042 313.261C164.508 313.422 164.125 313.174 163.808 312.968C163.607 312.837 163.432 312.724 163.261 312.74C163.172 312.748 163.175 312.841 163.179 312.964C163.187 313.179 163.198 313.487 162.736 313.613C162.009 313.812 161.658 313.737 160.737 313.507C160.124 313.354 160.024 312.435 159.959 311.839C159.927 311.54 159.903 311.322 159.828 311.322C159.726 311.322 159.672 311.528 159.607 311.781C159.528 312.086 159.432 312.459 159.211 312.615C158.439 313.161 157.995 313.209 157.325 312.469C157.117 312.238 157.16 311.923 157.194 311.681C157.22 311.489 157.241 311.343 157.123 311.322C157.052 311.309 156.958 311.426 156.833 311.58C156.635 311.825 156.36 312.166 155.981 312.242L155.944 312.249C154.887 312.461 154.532 312.532 153.713 311.597C153.533 311.392 153.612 311.006 153.683 310.656C153.755 310.301 153.82 309.984 153.6 309.932C153.368 309.877 153.107 310.391 152.829 310.938C152.582 311.422 152.323 311.933 152.058 312.1C151.539 312.428 151.179 312.194 150.727 311.902C150.688 311.876 150.648 311.85 150.607 311.824C148.106 307.81 151.029 303.262 153.688 299.125C154.03 298.594 154.367 298.069 154.688 297.553C162.654 284.743 160.653 269.191 156.349 255.191C155.237 251.572 153.982 247.968 152.727 244.363C149.126 234.022 145.523 223.673 145.273 212.951C145.227 210.97 145.296 208.984 145.365 207C145.493 203.342 145.621 199.687 145.025 196.07C144.314 191.755 142.598 187.632 140.881 183.508L140.881 183.508L140.881 183.508L140.881 183.508L140.881 183.508L140.881 183.508L140.881 183.507L140.881 183.507L140.881 183.507L140.881 183.507L140.881 183.507L140.881 183.507L140.881 183.507L140.88 183.506L140.88 183.506L140.88 183.506C140.18 181.824 139.48 180.142 138.848 178.446C134.702 167.326 133.483 155.589 132.941 143.943C132.515 134.772 132.512 125.453 135.366 116.596C138.221 107.739 144.262 99.2841 153.6 94.5571C155.298 93.6975 157.115 92.9477 158.93 92.1986C163.34 90.3785 167.741 88.5625 170.405 85.1855C173.924 80.7262 173.31 74.8962 172.561 69.5789C170.071 69.1978 168.224 66.9324 168.694 64.8377C169.165 62.743 171.868 61.2033 174.351 61.6153L171.122 56.2976C171.188 56.378 171.277 56.4966 171.386 56.6399L171.386 56.6399C172.413 58.0002 175.115 61.5801 174.926 55.7347C175.046 56.4652 175.208 56.964 175.395 57.5417L175.395 57.5418C175.62 58.2335 175.881 59.0383 176.151 60.4892ZM266.854 180.396C267.529 179.713 267.79 178.813 268.008 177.944C271.45 164.221 269.002 150.422 261.214 138.026C243.938 139.272 226.516 139.068 209.288 137.416C206.739 137.171 205.11 139.603 204.3 141.655C199.799 153.053 198.196 165.256 199.631 177.208C199.879 179.269 202.815 180.165 205.243 180.492C210.808 181.242 213.882 180.761 218.441 180.048C221.941 179.5 226.317 178.815 233.369 178.446C234.201 178.402 234.163 176.001 234.115 172.939C234.064 169.673 234.001 165.656 234.97 162.95C237.96 206.132 240.05 249.357 241.239 292.6C241.276 293.947 241.345 295.382 242.265 296.483C243.57 298.043 246.102 298.403 248.362 298.535C255.365 298.945 268.715 299.185 269.262 297.023C268.919 295.092 266.312 293.994 263.87 292.964C263.381 292.758 262.899 292.555 262.443 292.348C258.527 290.575 256.448 286.738 256.055 283.008C255.704 279.674 256.474 276.35 257.237 273.056C257.328 272.663 257.419 272.271 257.508 271.879C259.822 261.674 260.81 251.256 260.448 240.871C260.416 239.972 260.375 239.073 260.334 238.173L260.333 238.172C260.188 235.016 260.043 231.858 260.332 228.711C260.691 224.794 261.719 220.951 262.745 217.113L262.745 217.113C262.957 216.321 263.168 215.53 263.374 214.739C266.164 203.997 267.884 193.058 268.509 182.074C258.316 185.81 246.011 185.156 236.456 180.369C244.747 183.123 253.913 183.063 262.719 181.908C264.238 181.709 265.87 181.392 266.854 180.396ZM273.692 113.56C272.615 105.592 270.374 97.7351 267.039 90.2235C266.434 88.8615 265.496 87.8346 264.492 86.7348C264.21 86.4264 263.923 86.1122 263.637 85.7833C261.248 83.0393 257.795 81.2477 254.323 79.4467C251.61 78.0389 248.885 76.6255 246.65 74.7469C243.582 77.1425 239.331 78.4277 235.155 78.2222C230.979 78.0166 226.935 76.3232 224.219 73.643C224.018 73.4449 223.662 73.441 223.354 73.4551C218.218 73.6891 213.056 74.4774 208.401 76.3213C203.746 78.1652 199.614 81.1303 197.286 84.994C196.334 86.573 195.695 88.2707 195.098 89.9684C192.075 98.5561 189.994 107.379 188.89 116.288C188.824 116.821 188.783 117.419 189.191 117.831C189.466 118.108 189.892 118.241 190.301 118.352C193.888 119.321 197.78 119.478 201.462 118.802L191.208 117.586C190.598 117.513 189.807 116.966 190.299 116.655C190.46 116.553 190.682 116.569 190.881 116.59L202.963 117.865C203.5 117.922 203.817 117.372 203.906 116.922C204.162 115.619 203.964 114.248 203.767 112.893C203.473 110.861 203.184 108.866 204.443 107.194C205.549 116.26 205.347 125.439 203.842 134.464C203.666 135.518 205.301 136.037 206.555 136.162C223.721 137.878 241.074 138.268 258.324 137.326C261.02 137.179 263.059 135.004 263.541 132.765C264.022 130.526 263.315 128.24 262.613 126.042L257.328 109.496C257.008 108.495 256.767 107.251 257.695 106.57L260.9 117.003C261.033 117.433 261.214 117.916 261.692 118.104C262.042 118.243 262.451 118.179 262.83 118.113L271.244 116.639C271.953 116.515 272.71 116.368 273.199 115.919C273.861 115.311 273.803 114.38 273.692 113.56ZM188.501 109.397C188.501 108.374 188.894 106.798 189.33 105.049C190.653 99.7384 192.374 92.8316 184.715 94.9491L184.581 94.9862C181.54 95.8276 177.945 96.822 174.685 95.9489C171.378 95.063 168.571 92.932 167.182 90.2525C168.064 89.7028 169.155 90.6162 169.823 91.3486C173.066 94.8991 179.368 96.1721 184.169 94.2462C186.52 93.303 186.535 90.5329 186.194 88.3579C181.027 89.828 174.74 86.7641 173.677 82.2578C172.657 85.2543 170.285 87.9093 167.15 89.5658C165.971 90.1888 164.7 90.6707 163.429 91.1524L163.428 91.1527C163.029 91.304 162.63 91.4553 162.234 91.6109C146.593 97.755 135.525 111.441 134.46 125.951C134.413 126.594 134.568 127.443 135.322 127.548L146.928 129.157C147.067 129.176 147.194 129.197 147.316 129.218L147.316 129.218L147.317 129.218L147.317 129.218L147.317 129.218C147.945 129.324 148.423 129.405 149.455 129.005C150.688 128.528 150.919 123.468 150.803 121.9C150.688 120.331 150.564 118.33 152.249 117.656C152.403 122.732 151.416 127.75 150.427 132.774C149.625 136.852 148.822 140.934 148.628 145.054C148.566 146.379 148.614 147.709 148.663 149.038C148.716 150.501 148.769 151.963 148.674 153.416C147.428 172.56 147.201 216.017 147.201 216.017C147.201 216.017 169.122 214.574 177.176 212.951C189.05 210.558 196.817 207.637 200.736 206.163L200.736 206.163C202.532 205.488 203.52 205.116 203.726 205.238C203.003 201.685 201.1 194.742 198.893 186.692C194.563 170.898 189.065 150.843 189.02 143.771C189.017 143.281 188.747 142.621 188.525 142.078C188.194 141.268 187.969 140.716 188.888 141.366L188.71 135.047C188.669 133.589 188.547 130.395 188.42 129.672C187.051 121.907 187.679 116.996 188.15 113.319C188.338 111.849 188.501 110.577 188.501 109.397ZM217.623 301.52C217.817 303.492 219.417 303.769 220.778 302.818C221.227 302.504 221.392 301.385 221.558 300.252L221.559 300.249L221.559 300.246C221.577 300.126 221.595 300.005 221.613 299.885C221.626 299.802 221.638 299.718 221.652 299.636C221.902 300.129 221.939 300.868 221.973 301.553C222.019 302.476 222.06 303.303 222.612 303.303C224.81 303.303 224.46 300.077 224.294 298.551C224.283 298.45 224.273 298.357 224.264 298.272C224.715 297.719 225.445 299.2 225.259 300.057C225.073 300.913 225.049 302.013 225.782 302.627C226.949 303.605 228.752 302.026 228.969 300.651C229.347 298.252 228.387 295.95 227.418 293.63C226.735 291.993 226.047 290.347 225.823 288.65C225.531 286.436 226.038 284.212 226.538 282.02L226.614 281.69C231.151 261.723 231.894 241.3 232.624 220.979L234.078 180.506C223.438 182.665 212.269 182.952 201.493 181.343C200.891 181.253 200.689 181.997 200.756 182.508C202.011 191.972 203.764 201.401 205.516 210.827L205.516 210.827C208.842 228.725 212.167 246.609 212.075 264.689C212.069 265.928 212.047 267.168 212.025 268.409C211.927 273.928 211.828 279.46 213.119 284.856C213.238 285.354 213.369 285.855 213.501 286.357C214.154 288.855 214.817 291.39 214.088 293.842C213.793 294.834 213.275 295.806 212.761 296.772C211.777 298.622 210.805 300.446 211.44 302.33C211.622 302.869 212.12 303.464 212.776 303.368C213.584 303.251 213.587 302.418 213.591 301.601C213.594 300.779 213.597 299.973 214.421 299.928C214.278 301.152 215.109 303.19 216.057 302.946C216.66 302.946 216.77 302.029 216.887 301.045C216.969 300.362 217.054 299.646 217.312 299.185C217.786 299.829 217.708 300.479 217.648 300.982C217.623 301.191 217.601 301.374 217.623 301.52ZM197.674 167.847C197.617 161.966 198.978 156.148 200.333 150.378C201.434 145.689 202.605 140.856 205.805 136.909C204.85 137.287 203.672 136.705 203.215 135.904C202.757 135.103 202.823 134.169 202.899 133.283L203.945 121.046C204.001 120.384 203.648 119.423 202.897 119.624C199.027 120.662 194.742 120.567 190.942 119.358C190.374 119.177 190.026 119.884 189.999 120.395C188.76 144.066 197.761 176.768 197.674 167.847ZM183.205 305.807C183.764 305.741 184.186 306.813 184.538 307.706C184.709 308.14 184.864 308.533 185.009 308.73C185.477 309.363 186.751 309.121 187.2 308.478C187.438 308.138 187.399 307.347 187.366 306.678C187.337 306.084 187.313 305.587 187.491 305.587C188.489 305.587 188.81 306.26 189.116 306.902C189.419 307.536 189.707 308.14 190.621 308.029C191.369 307.939 191.851 307.306 192.062 306.696C192.825 304.485 191.397 302.451 189.939 300.375C189.151 299.253 188.355 298.119 187.891 296.937C187.269 295.355 187.259 293.668 187.249 291.983C187.239 290.209 187.228 288.436 186.503 286.791C186.039 285.736 185.302 284.789 184.568 283.846C184.418 283.653 184.268 283.46 184.12 283.266C176.56 273.346 175.197 261.02 174.926 249.234C174.681 238.564 175.158 227.883 176.355 217.259L171.618 217.831L147.74 220.71C151.382 238.896 157.413 256.672 163.431 274.404C164.201 276.67 164.972 278.942 166.044 281.119C167.189 283.446 168.675 285.654 170.456 287.678C173.127 290.713 172.926 294.806 172.738 298.609C172.73 298.771 172.722 298.933 172.715 299.094C172.703 299.344 172.689 299.598 172.676 299.854L172.676 299.855L172.676 299.855L172.676 299.856C172.476 303.635 172.246 307.993 176.151 309.664C177.112 310.075 176.979 309.32 176.816 308.384C176.689 307.66 176.543 306.828 176.871 306.345C176.978 307.216 177.097 308.119 177.631 308.871C178.166 309.622 179.243 310.176 180.242 309.932C180.523 309.803 180.406 309.225 180.266 308.531C180.116 307.786 179.939 306.908 180.197 306.307C180.51 306.737 180.646 307.185 180.788 307.653C180.94 308.152 181.099 308.673 181.485 309.216C182.153 310.157 183.838 309.627 183.95 308.756C184.013 308.267 183.769 307.813 183.53 307.367C183.252 306.849 182.981 306.343 183.205 305.807ZM144.798 190.558C146.191 176.204 147.585 161.825 147.393 147.424C147.389 147.161 147.385 146.899 147.381 146.636C147.348 144.45 147.314 142.26 147.582 140.086C147.861 137.82 148.467 135.584 149.384 133.442L135.192 131.985C134.995 131.965 134.767 131.953 134.63 132.073C134.527 132.164 134.512 132.3 134.502 132.426C132.966 152.125 136.503 172.094 144.798 190.558ZM262.182 120.19L263.912 126.082C264.5 128.083 265.092 130.122 264.953 132.18C264.814 134.239 263.831 136.358 261.834 137.55C267.942 144.816 270.03 153.978 270.366 162.877C270.545 167.609 270.274 172.339 270.002 177.07V177.07V177.071V177.071V177.071V177.071V177.071V177.072V177.072V177.072V177.072V177.072V177.072V177.073V177.073V177.073L270.002 177.074C269.763 181.24 269.524 185.406 269.592 189.574C273.712 180.347 273.876 170.253 273.991 160.396L274.299 133.795C274.362 128.34 274.424 122.863 273.576 117.455L263.637 119.111C262.923 119.23 262.007 119.595 262.182 120.19ZM226.26 29.1515C221.744 31.0708 219.402 35.5897 219.508 39.8494C219.551 41.6269 220.147 43.6304 222.002 44.4788C223.195 45.0246 224.759 44.932 225.849 44.251C226.94 43.57 227.5 42.3362 227.228 41.2159C227.098 40.684 227.955 40.2794 228.545 40.4976C229.135 40.7158 229.42 41.2901 229.504 41.8284C229.536 42.0359 229.548 42.2458 229.559 42.4556V42.4557C229.577 42.7902 229.595 43.1241 229.698 43.4463C229.984 44.3353 230.966 45.0337 232.054 45.1218C233.142 45.21 234.264 44.682 234.745 43.8551C234.87 43.6414 234.956 43.4099 235.042 43.1793L235.042 43.1793C235.188 42.7864 235.333 42.3964 235.665 42.1024C236.191 41.636 237.462 41.8596 237.294 42.4873C236.951 43.7713 238.558 45.0375 240.111 44.8935C241.664 44.7496 242.859 43.4998 243.033 42.1917L243.046 42.0921C243.139 41.3764 243.26 40.455 244.085 40.3929C244.774 40.9709 244.931 41.8364 245.087 42.6897C245.261 43.643 245.432 44.5811 246.336 45.0866C247.62 45.8038 249.39 44.9937 250.263 43.9247C251.509 42.3982 251.756 40.4036 251.31 38.5895C250.864 36.7755 249.786 35.1145 248.558 33.5775C247.634 32.4202 246.607 31.3066 245.343 30.4053C241.411 27.6001 235.73 27.2357 230.66 28.0105C229.145 28.2421 227.635 28.567 226.26 29.1515ZM162.357 274.947C161.816 277.388 161.594 279.849 161.372 282.31C161.149 284.772 160.927 287.233 160.386 289.674C160.232 290.367 159.058 292.255 157.566 294.653C154.574 299.463 150.304 306.328 150.422 309.73C150.444 310.344 150.774 311.554 151.391 311.479C152.551 311.337 152.767 310.257 152.967 309.252C152.992 309.13 153.016 309.008 153.042 308.89C153.278 307.8 153.474 307.468 154.776 307.629C155.174 307.734 155.174 308.158 154.724 308.89C154.274 309.621 153.944 310.542 154.471 311.235C154.999 311.929 156.662 311.744 156.581 310.923C156.515 310.268 157.07 309.607 157.825 309.44C158.078 309.813 157.97 310.318 157.868 310.793C157.741 311.379 157.626 311.918 158.22 312.1C159.034 312.35 159.472 311.331 159.623 310.613C159.775 309.895 160.929 309.122 161.296 309.783C160.323 310.78 159.316 313.137 162.009 313.137C162.757 313.137 162.746 312.108 162.735 311.079C162.73 310.564 162.724 310.05 162.814 309.664C163.533 309.626 163.826 310.455 163.697 311.052C163.667 311.195 163.628 311.319 163.593 311.432C163.479 311.794 163.402 312.043 163.745 312.404C164.385 313.077 165.674 312.575 166.409 311.975C169.248 309.657 170.766 306.787 171.347 303.492C171.928 300.198 171.651 296.844 171.372 293.521C171.227 291.794 171.035 289.956 169.779 288.585C166.12 284.592 163.561 279.888 162.357 274.947ZM235.112 45.4104C233.703 46.6397 231.06 46.6267 229.668 45.3836C229.539 45.2683 229.419 45.1442 229.3 45.0203C229.055 44.7664 228.811 44.5131 228.487 44.3368C228.005 44.0746 227.244 44.0731 226.965 44.4957C225.801 46.2628 222.639 46.7944 220.759 45.539L224.659 58.057C225.385 60.3873 226.186 62.833 228.201 64.5425C229.473 65.6217 231.136 66.3167 232.836 66.829C233.749 67.1045 234.703 67.335 235.673 67.3119C236.759 67.286 237.802 66.9433 238.762 66.5157C242.791 64.7227 245.658 61.4154 247.275 57.8264C248.892 54.2374 249.371 50.3592 249.563 46.5238C247.376 47.152 244.727 46.2973 243.598 44.5993C242.09 45.8271 239.709 46.2265 237.758 45.5789L237.662 45.5466L237.533 45.5031C236.696 45.2191 235.714 44.8855 235.112 45.4104ZM208.679 60.1319C207.343 56.501 204.017 53.3012 199.69 52.2223C198.128 51.8328 196.483 51.7201 194.854 51.7506C187.075 51.896 179.108 55.9118 176.893 62.1959C176.716 62.6967 176.585 63.2666 176.897 63.7181C177.197 64.1529 177.816 64.3428 178.393 64.4743C183.435 65.6241 189.087 64.6808 193.228 61.9984L193.335 61.9285C193.791 61.6316 194.263 61.3241 194.828 61.2511C195.438 61.1724 196.17 61.5106 196.167 62.0303C196.14 66.4888 198.791 71.2616 203.726 72.8721C204.755 73.2078 206.008 73.372 206.891 72.8149C207.456 72.4585 207.747 71.8792 207.988 71.3207C209.53 67.7482 210.016 63.7627 208.679 60.1319ZM187.737 42.3987C188.679 44.1945 190.415 45.6056 192.229 46.8381C195.386 48.9827 199.11 50.788 203.163 50.9106C207.216 51.0333 211.562 49.0368 212.605 45.7352C213.149 44.0166 212.766 42.1821 212.117 40.4899C211.438 38.7231 210.372 36.9399 208.486 35.9785C203.398 33.3845 196.806 33.0121 191.353 35.0104C190.19 35.4366 189.049 35.9831 188.254 36.8158C186.794 38.346 186.794 40.6029 187.737 42.3987ZM262.814 29.1795C265.075 25.668 264.642 21.0502 261.753 17.8819C261.336 17.424 260.859 16.9863 260.25 16.7211C259.655 16.4617 258.971 16.3844 258.301 16.3635C254.915 16.2578 251.509 17.5727 249.393 19.8018C247.277 22.0308 246.504 25.1198 247.371 27.8787C247.854 27.6865 248.037 27.1979 248.173 26.7628C248.308 26.3277 248.498 25.8394 248.984 25.6539C249.471 25.4684 250.18 25.9567 249.855 26.3136C248.769 27.5058 248.249 29.0539 248.433 30.5487C248.614 30.8758 249.172 30.5089 249.327 30.1726L250.021 28.6647C250.185 28.3101 250.368 27.9334 250.742 27.7208C251.117 27.5081 251.739 27.5691 251.89 27.9275L250.17 30.9252C249.948 31.312 249.825 31.9177 250.311 32.0471L255.111 28.9567C255.724 29.5427 255.16 30.4872 254.414 30.9509C254.185 31.093 253.937 31.2192 253.689 31.3452C253.128 31.63 252.57 31.9139 252.241 32.3794C253.87 32.5426 255.521 32.5491 257.151 32.3988C258.022 32.3186 258.899 32.1907 259.694 31.8812C261.071 31.3447 262.091 30.3034 262.814 29.1795ZM226.6 73.7474C228.35 75.2717 230.905 75.9069 233.369 76.343C237.022 76.9899 241.216 77.2279 244.109 75.2396C244.702 74.832 245.254 74.1719 244.932 73.5868C243.573 71.1141 243.069 68.3128 243.497 65.6117C242.896 65.5263 242.413 65.997 242.022 66.3909C240.54 67.8818 238.379 68.9519 236.073 69.0384C232.87 69.1585 230.018 67.4619 227.451 65.8435C227.256 67.6702 226.657 69.4658 225.693 71.1106C225.18 71.9863 225.794 73.0456 226.6 73.7474ZM147.554 218.785C148.384 219.227 149.444 219.166 150.422 219.089C165.001 217.944 180.029 216.474 192.757 210.378C182.106 213.692 170.753 215.014 159.504 216.315C155.422 216.787 151.268 217.258 147.201 216.706C146.398 217.183 146.723 218.343 147.554 218.785ZM187.157 88.6881L187.491 92.1341C187.519 92.4256 187.551 92.7277 187.722 92.9822C187.93 93.2915 188.311 93.4844 188.676 93.6635L191.539 95.0708C191.677 95.1385 191.836 95.2085 191.988 95.1677C192.17 95.1186 192.244 94.9393 192.293 94.7835L194.897 86.4292C192.25 87.0024 189.658 87.7587 187.157 88.6881ZM148.221 132.011C148.464 132.02 148.716 132.027 148.941 131.95C149.55 131.741 149.659 131.066 149.675 130.512C144.615 130.135 139.591 129.412 134.67 128.35C133.943 128.799 134.082 129.818 134.719 130.355C135.356 130.893 136.296 131.068 137.184 131.198C140.826 131.728 144.529 131.881 148.221 132.011ZM172.182 67.7374C172.949 67.9625 173.666 67.2497 173.834 66.5801C173.889 66.3591 173.916 66.1303 173.943 65.902L173.943 65.902L173.943 65.9019L173.943 65.9018L173.943 65.9017L173.943 65.9017L173.943 65.9016L173.943 65.9015L173.943 65.9015L173.943 65.9014L173.943 65.9013L173.943 65.9013L173.943 65.9012L173.943 65.9011L173.943 65.9011L173.943 65.901C173.998 65.4381 174.052 64.9776 174.34 64.5887C174.765 64.0134 174.178 63.1995 173.398 63.0348C172.618 62.8702 171.801 63.1777 171.16 63.5867C170.108 64.2577 169.303 65.4767 169.908 66.4642C170.337 67.1629 171.3 67.4788 172.182 67.7374ZM253.575 49.6281C253.506 49.3999 253.407 49.171 253.222 48.9949C252.674 48.475 251.587 48.6646 251.05 49.1929C250.513 49.7212 250.38 50.4522 250.277 51.1421C250.149 52.0034 250.034 52.866 249.932 53.7298C249.905 53.9557 250.008 54.2849 250.27 54.2322C252.574 53.7686 254.158 51.5626 253.575 49.6281ZM221.239 54.8049C221.411 54.723 221.575 54.6162 221.662 54.4674C221.797 54.2382 221.725 53.9649 221.65 53.717L221.206 52.2469C221.031 51.6681 220.763 51.0012 220.089 50.8164C219.336 50.6099 218.574 51.1621 218.227 51.7618C217.714 52.6485 217.761 53.8232 218.597 54.514C219.277 55.0765 220.41 55.2012 221.239 54.8049ZM254.609 33.9853C254.034 33.7416 253.356 33.6741 252.729 33.7978C253.254 34.2933 254.143 34.4896 254.889 34.2751C255.102 34.1785 254.885 33.8348 254.671 33.9305L254.609 33.9853ZM261.405 116.487L271.231 114.475C271.401 114.441 271.595 114.408 271.744 114.479C272.131 114.663 271.665 115.087 271.243 115.22C268.566 116.068 265.719 116.614 262.829 116.833C262.298 116.874 261.633 116.849 261.405 116.487ZM179.438 70.8273C179.739 70.6884 179.851 70.4242 179.964 70.1586C180.012 70.0461 180.059 69.9332 180.122 69.8295C180.332 69.4812 181.085 69.2599 181.263 69.6185C181.898 70.8983 183.632 71.8071 185.416 71.7952C186.055 71.7909 186.315 72.5222 185.928 72.9136C185.542 73.305 184.842 73.4105 184.205 73.4535C183.671 72.8173 182.75 72.4846 181.829 72.1522C180.897 71.8154 179.965 71.4789 179.438 70.8273ZM195.794 79.0729C195.479 79.0325 195.267 78.7934 195.06 78.5601C194.829 78.3008 194.605 78.0485 194.254 78.0834C193.027 78.2055 192.275 76.9969 191.887 75.9998C191.732 75.6012 191.883 74.9282 192.342 75.0835C193.516 76.1721 195.142 76.9019 196.861 77.1129C197.528 77.1947 198.385 77.3293 198.5 77.8933L196.526 78.8774C196.3 78.9896 196.052 79.1061 195.794 79.0729ZM190.052 81.6138C186.219 82.7396 181.425 81.2888 179.612 78.4542C179.41 78.1394 178.713 78.2722 178.548 78.599C178.382 78.9259 178.573 79.2919 178.792 79.5995C179.913 81.1726 181.882 82.374 184.126 82.855C186.37 83.3361 188.861 83.0907 190.875 82.1899C190.751 81.8823 190.443 81.499 190.052 81.6138ZM186.311 74.4687C186.641 74.0987 187.006 73.7234 187.511 73.543C188.015 73.3627 188.696 73.4494 188.969 73.8511C187.962 74.6154 187.051 75.4711 186.259 76.3988C185.958 76.751 185.66 77.1608 185.742 77.5898C185.824 78.0187 186.507 78.348 186.871 78.0414C187.143 77.8122 187.673 78.0514 187.696 78.3757C187.718 78.7 187.372 78.9765 186.998 79.0499C186.624 79.1234 186.233 79.043 185.864 78.9539C185.214 78.7969 184.492 78.547 184.269 78.0067C184.066 77.5111 184.37 76.9774 184.685 76.5254C185.181 75.8146 185.724 75.1275 186.311 74.4687ZM230.334 48.5716C231.11 48.6232 232.115 49.0598 231.799 49.6129C231.251 49.9723 230.498 49.8514 229.759 49.7329C229.54 49.6977 229.321 49.6627 229.11 49.6406C228.212 49.5465 227.312 49.7148 226.415 49.8825C225.425 50.0675 224.439 50.2519 223.463 50.0823C223.198 49.941 223.242 49.6039 223.465 49.4247C223.689 49.2455 224.021 49.183 224.334 49.1283C226.308 48.784 228.319 48.4375 230.334 48.5716ZM242.091 49.0294C243.431 49.1683 244.799 49.1406 246.127 48.9476C246.33 48.423 245.38 48.1144 244.669 48.0564L241.332 47.7845C240.611 47.7258 239.835 47.6754 239.207 47.9524C238.579 48.2294 238.268 48.975 238.807 49.3457C239.563 48.7602 240.787 48.8905 241.874 49.0064L241.874 49.0064L241.874 49.0065L241.909 49.0101C241.97 49.0167 242.031 49.0231 242.091 49.0294ZM243.598 53.1464C243.552 53.2637 243.368 53.3047 243.212 53.322C241.778 53.4811 240.269 53.1791 239.112 52.5016C238.836 52.3401 238.561 52.1314 238.532 51.8639C238.502 51.5964 238.873 51.3122 239.179 51.4378C240.776 52.0953 242.874 51.9273 244.265 51.0304C244.596 50.8175 245.153 51.0759 245.198 51.4077C245.243 51.7395 244.93 52.0437 244.563 52.2171C244.344 52.3208 244.104 52.3916 243.863 52.4625C243.701 52.5101 243.54 52.5578 243.384 52.6154C243.318 52.8044 243.405 53.0206 243.598 53.1464ZM239.162 58.7676C240.27 58.0943 241.284 56.96 240.805 55.8882C238.817 58.1374 235.359 59.4199 232.025 59.1448C231.456 59.0978 230.962 59.5605 230.911 60.0364C230.861 60.5122 231.144 60.9706 231.493 61.3491C233.108 63.0991 236.266 63.5733 238.687 62.6787C241.107 61.7841 242.75 59.732 243.224 57.5591C243.321 57.1147 243.363 56.6212 243.063 56.2453C242.762 55.8694 241.994 55.75 241.699 56.129C242.214 56.7474 242.198 57.5777 241.966 58.3055C241.485 59.8165 240.125 61.1144 238.394 61.7139C236.663 62.3134 234.601 62.2008 232.979 61.4183C232.718 61.2927 232.452 61.1331 232.362 60.894C232.272 60.6548 232.465 60.3358 232.765 60.3492C235.03 60.4495 237.329 59.8811 239.162 58.7676ZM231.715 51.9354C230.557 54.0595 227.272 54.5781 224.737 53.8679C224.009 53.6642 224.116 52.6074 224.766 52.2526C225.416 51.8977 226.248 52.0285 226.993 52.1749C227.738 52.3214 228.565 52.4619 229.225 52.1213C229.483 51.9877 229.688 51.7923 229.893 51.5965C230.069 51.429 230.245 51.2612 230.455 51.1315C230.911 50.8502 231.715 50.8825 231.843 51.3623C231.894 51.5557 231.812 51.7565 231.715 51.9354ZM233.386 51.3057L232.848 55.1871C232.807 55.4821 232.769 55.7946 232.92 56.0639C233.15 56.4731 233.783 56.6555 234.313 56.5474C234.843 56.4393 235.266 56.0972 235.54 55.7069C235.819 55.3089 235.641 54.558 235.117 54.7125C234.976 54.7538 234.876 54.8571 234.777 54.9584C234.659 55.0802 234.544 55.1991 234.364 55.2041C233.949 55.2156 233.956 54.6913 234.094 54.3677C234.669 53.0214 234.758 51.5361 234.346 50.1496C233.721 50.1314 233.457 50.7923 233.386 51.3057ZM194.506 72.0455C196.291 72.5951 197.9 73.5405 199.124 74.7592C199.267 74.9018 199.41 75.057 199.446 75.2409C199.498 75.5128 199.267 75.8019 198.946 75.8643C197.107 74.1151 194.561 72.897 191.828 72.4586C192.248 71.6969 193.567 71.756 194.506 72.0455ZM183.33 250.351C182.841 250.316 182.34 250.281 181.925 250.135C181.7 250.056 181.503 249.943 181.306 249.831C181.118 249.723 180.93 249.616 180.717 249.537C180.283 249.377 179.637 249.4 179.438 249.725C180.875 250.821 183.142 251.295 185.157 250.922C184.825 250.457 184.093 250.405 183.33 250.351ZM255.1 228.422L258.717 227.764C259.031 227.707 259.48 227.753 259.498 228.085C257.857 229.273 255.705 229.656 253.78 229.101C254.04 228.646 254.601 228.513 255.1 228.422ZM204.382 154.519C203.658 154.668 202.929 154.818 202.312 155.146C203.691 155.695 205.367 155.332 206.772 154.824C209.93 153.682 212.668 151.833 214.579 149.551C215.319 148.667 215.955 147.578 215.506 146.581C214.788 146.692 214.453 147.325 214.18 147.858C212.57 151.004 209.03 153.499 204.875 154.415C204.712 154.451 204.547 154.485 204.382 154.519ZM266.17 155.916C265.793 156.378 264.933 156.241 264.316 156.013C259.541 154.24 256.353 149.897 256.659 145.581C256.673 145.39 256.703 145.181 256.872 145.051C257.04 144.92 257.389 144.957 257.424 145.146C257.738 146.849 258.056 148.569 258.819 150.173C259.582 151.776 260.839 153.277 262.643 154.142C263.017 154.321 263.415 154.474 263.812 154.627L263.812 154.627C264.691 154.966 265.567 155.304 266.17 155.916ZM218.18 230.598C217.028 230.338 215.869 230.075 214.703 230.177C216.995 231.781 220.471 232.218 223.271 231.254C223.373 230.875 222.607 230.842 222.136 230.936C220.826 231.197 219.507 230.899 218.18 230.598ZM228.869 145.764C229.334 145.848 229.702 145.45 229.943 145.105C230.948 143.659 231.605 143.132 232.92 142.078L233.007 142.008C233.076 142.811 233.151 143.28 233.225 143.749C233.3 144.218 233.374 144.687 233.444 145.49C233.467 145.75 233.497 146.027 233.687 146.233C234.217 146.809 235.339 146.314 235.791 145.693C236.837 144.251 236.526 142.211 235.081 141.039C234.711 140.738 235.258 140.173 235.763 140.257C236.268 140.341 236.578 140.764 236.793 141.158C237.42 142.302 237.783 143.599 237.452 144.828C237.12 146.056 235.97 147.178 234.491 147.362C233.969 147.426 233.388 147.359 233.007 147.051C232.589 146.713 232.511 146.183 232.458 145.697L232.285 144.115C231.793 144.367 231.478 144.792 231.166 145.214C230.822 145.678 230.481 146.139 229.91 146.365C229.01 146.722 227.859 146.274 227.393 145.534C226.927 144.793 227.045 143.869 227.464 143.11C227.884 142.35 228.571 141.722 229.256 141.114C229.67 140.747 230.112 140.369 230.684 140.212C231.256 140.055 231.993 140.204 232.24 140.665C230.041 141.101 228.324 142.883 228.268 144.786C228.257 145.185 228.405 145.681 228.869 145.764ZM158.552 244.136C158.641 244.241 158.78 244.294 158.914 244.337C161.441 245.151 164.164 244.049 166.578 242.97C166.853 242.847 167.178 242.562 166.994 242.332C166.9 242.215 166.721 242.203 166.566 242.21C165.63 242.253 164.724 242.607 163.829 242.956C162.613 243.432 161.417 243.899 160.191 243.566C160.098 243.54 160.005 243.51 159.911 243.48C159.625 243.388 159.338 243.295 159.044 243.336C158.653 243.389 158.306 243.844 158.552 244.136Z" fill="#00160A"/>
<path fill-rule="evenodd" clip-rule="evenodd" d="M196.876 43.992C197.136 45.374 198.1 46.6758 199.529 47.5744C200.12 47.9455 200.449 48.5367 200.385 49.111C200.538 49.3891 199.837 49.4101 199.518 49.2261C197.652 48.1484 196.296 46.5892 195.735 44.8785C195.628 44.5519 195.561 44.1763 195.828 43.9056C196.094 43.6348 196.814 43.659 196.876 43.992V43.992Z" fill="#00160A"/>
<path fill-rule="evenodd" clip-rule="evenodd" d="M190.014 60.9586C191.178 60.3537 192.43 59.5768 193.734 59.8481C190.019 63.4054 184.087 64.339 178.787 63.5487C178.346 63.4829 177.856 63.377 177.616 63.0307C177.376 62.6844 177.683 62.0804 178.112 62.1975C182.044 63.2715 186.444 62.8135 190.014 60.9586V60.9586Z" fill="#00160A"/>
<ellipse cx="177.344" cy="76.1386" rx="2.176" ry="1.83467" fill="#FFB61D"/>
<ellipse cx="193.664" cy="82.1013" rx="2.176" ry="1.83467" fill="#FFB61D"/>
<ellipse cx="227.664" cy="58.4799" rx="1.36" ry="1.14667" fill="#FFB61D"/>
<ellipse cx="245.616" cy="57.5627" rx="1.36" ry="1.14667" fill="#FFB61D"/>
</svg>
